<svg width="23" height="16" viewBox="0 0 23 16" fill="none" xmlns="http://www.w3.org/2000/svg">
<path d="M22.3488 8.0085L16.8488 1.1335C16.7845 1.05298 16.7029 0.987944 16.6101 0.9432C16.5172 0.898455 16.4155 0.875148 16.3125 0.875001H6.6875C6.58441 0.874849 6.48261 0.898024 6.38975 0.94279C6.29688 0.987557 6.21535 1.05275 6.15125 1.1335L0.65125 8.0085C0.553616 8.1302 0.500278 8.28148 0.5 8.4375V14.625C0.5 14.9897 0.644866 15.3394 0.902728 15.5973C1.16059 15.8551 1.51033 16 1.875 16H21.125C21.4897 16 21.8394 15.8551 22.0973 15.5973C22.3551 15.3394 22.5 14.9897 22.5 14.625V8.4375C22.5001 8.28142 22.4467 8.13003 22.3488 8.0085ZM21.125 9.125H16.3125L13.5625 11.875H9.4375L6.6875 9.125H1.875V8.67813L7.0175 2.25H15.9811L21.1236 8.67813V9.125H21.125Z" fill="#9CA3AF"/>
</svg>
